<?xml version="1.0" encoding="utf-8"?>
<!-- Generator: Adobe Illustrator 16.0.2, SVG Export Plug-In . SVG Version: 6.00 Build 0)  -->
<!DOCTYPE svg PUBLIC "-//W3C//DTD SVG 1.1//EN" "http://www.w3.org/Graphics/SVG/1.1/DTD/svg11.dtd">
<svg version="1.1" id="Layer_1" xmlns="http://www.w3.org/2000/svg" xmlns:xlink="http://www.w3.org/1999/xlink" x="0px" y="0px"
	 width="94.69px" height="200px" viewBox="52.655 0 94.69 200" enable-background="new 52.655 0 94.69 200" xml:space="preserve">
<path d="M110.367,35.206l-0.356-1.166c-0.489,7.922-1.394,23.473-2.57,41.959c5.993-0.433,14.579-1.044,28.46-2.146
	c5.21,0,9.444,4.224,9.444,9.445c0,5.212-4.234,9.445-9.444,9.445c-14.703-0.827-23.443-1.231-29.455-1.543
	c-3.145,47.05-7.668,103.798-11.656,106.799c-0.047-2.54,0.302-1.918,0.508-4.018c-6.36-42.062-6.021-33.812-5.588-80.446
	c0.074-7.817,0.3-15.786,0.668-23.689c-6.021-0.856-14.741-2.389-35.723-5.588l0,0c21.883-3.885,30.368-5.607,36.418-6.585
	c4.065-60.333,16.982-109.723,37.932-45.563c0.859,5.145-2.624,10.011-7.771,10.865C116.079,43.833,111.225,40.353,110.367,35.206z"
	/>
</svg>
