<?xml version="1.0" encoding="utf-8"?>
<!-- Generator: Adobe Illustrator 16.0.2, SVG Export Plug-In . SVG Version: 6.00 Build 0)  -->
<!DOCTYPE svg PUBLIC "-//W3C//DTD SVG 1.1//EN" "http://www.w3.org/Graphics/SVG/1.1/DTD/svg11.dtd">
<svg version="1.1" id="Layer_1" xmlns="http://www.w3.org/2000/svg" xmlns:xlink="http://www.w3.org/1999/xlink" x="0px" y="0px"
	 width="42.155px" height="200px" viewBox="78.922 0 42.155 200" enable-background="new 78.922 0 42.155 200" xml:space="preserve"
	>
<path d="M111.343,92.351c-7.45,36.083-7.859,69.37-13.069,105.649c-17.159-38.335-16.007-77.412-10.362-118.278
	c3.499-6.466,11.567-8.878,18.037-5.392C112.414,77.813,114.826,85.896,111.343,92.351L111.343,92.351z M99.295,15.984
	c-0.438,0.08-0.979,0.226-1.709,0.409c0.278-0.026,0.874-0.105,1.59-0.238L99.295,15.984L99.295,15.984z M100.754,13.745
	l0.226-0.359c-1.419-0.662-1.856-1.047-9.436-5.579c37.343-26.582,37.477,47.797-4.359,28.822c-6.229-3.896-8.136-12.11-4.241-18.34
	C86.734,12.233,94.591,10.273,100.754,13.745L100.754,13.745z M101.483,13.611l-0.094,0.226l0.122-0.106
	c0.768,0.624,1.551,1.406,2.558,1.034L101.483,13.611z"/>
</svg>
