<?xml version="1.0" encoding="utf-8"?>
<!-- Generator: Adobe Illustrator 16.0.2, SVG Export Plug-In . SVG Version: 6.00 Build 0)  -->
<!DOCTYPE svg PUBLIC "-//W3C//DTD SVG 1.1//EN" "http://www.w3.org/Graphics/SVG/1.1/DTD/svg11.dtd">
<svg version="1.1" id="Layer_1" xmlns="http://www.w3.org/2000/svg" xmlns:xlink="http://www.w3.org/1999/xlink" x="0px" y="0px"
	 width="200px" height="156.874px" viewBox="0 21.563 200 156.874" enable-background="new 0 21.563 200 156.874"
	 xml:space="preserve">
<path d="M3.313,92.083C3.758-34.08,116.505,43.875,159.799,90.025l-0.034,0.021c-1.321-0.75-1.786-0.808-3.289-0.795
	c6.133,0.352,33.753,23.583,29.18,42.26l1.112-1.914c4.188,9.635,8.396,18.294,10.112,28.588l0.239-0.036
	c1.286,4.676,1.229,6.791-0.605,8.805c-8.085,14.856-50.446,11.921-79.453-6.438c-16.333-10.339-40.562-19.031-59.014-27.562
	c-6.563-2.378-21.068-9.138-26.163-15.86C22.317,114.547,7.098,101.977,2,96.709l2.991,1.331
	C3.929,96.316,3.313,94.268,3.313,92.083L3.313,92.083z M130.759,139.109c-50.221-30.916-59.65-41.815-99.975-77.898
	c-6.472,6.041-5.04,9.373-4.617,30.872c0,5.665-4.128,10.366-9.543,11.263c9.282,4.289,19.622,9.237,20.099,10.169l-0.034-0.205
	c14.72,13.833,66.385,21.66,90.91,40.313c1.354-3.924,3.252-8.645,5.357-13.571C132.206,139.813,131.467,139.508,130.759,139.109
	L130.759,139.109z M32.24,59.915c33.272,17.677,79.581,44.137,109.646,59.242l0.352,0.205c2.085-4.494,3.914-8.43,5.178-11.237
	c0.854-1.39,1.944-2.526,3.196-3.401C125.2,92.961,80.791,32.399,50.942,44.583C41.875,52.418,36.018,56.683,32.24,59.915
	L32.24,59.915z M164.783,122.969c-7.848,11.011-19.643,29.154-32.521,34.661c0.943,0.941,1.82,1.889,2.628,2.879
	c32.988-2.389,24.526-2.55,45.717-0.946C156.231,103.562,175.237,135.492,164.783,122.969L164.783,122.969z M195.668,158.354
	c-0.672-0.498-2.012-0.647-6.632-2.32c-2.334,1.559-4.313,2.14-5.369,3.742l1.252,0.104L195.668,158.354z"/>
</svg>
