<?xml version="1.0" encoding="utf-8"?>
<!-- Generator: Adobe Illustrator 16.0.2, SVG Export Plug-In . SVG Version: 6.00 Build 0)  -->
<!DOCTYPE svg PUBLIC "-//W3C//DTD SVG 1.1//EN" "http://www.w3.org/Graphics/SVG/1.1/DTD/svg11.dtd">
<svg version="1.1" id="Layer_1" xmlns="http://www.w3.org/2000/svg" xmlns:xlink="http://www.w3.org/1999/xlink" x="0px" y="0px"
	 width="200px" height="135.03px" viewBox="0 32.485 200 135.03" enable-background="new 0 32.485 200 135.03" xml:space="preserve"
	>
<path d="M71.052,91.259c7.212-10.828,13.879-18.788,24.561-24.201c10.927-14.412,34.31-24.79,52.031-20.817
	c4.594-1.282,9.068-1.021,14.194-0.202c22.157-6.838,54.937,33.63,22.588,35.933c-7.547,3.211-16.772,4.708-22.833,10.063
	c0.245-0.49,0.1-0.143,0.448-1.15c-1.987,4.377-3.268,6.377-5.919,7.558c-7.228,10.063-32.765,44.514-48.904,56.636
	c-2.879,6.653-9.646,9.546-17.277,5.184c2.419,1.527,3.757,2.507,6.882,2.117c-30.767,4.907-56.925,3.456-73.639-0.274
	c-1.138,0.548-2.448,0.979-4.002,1.296l0.13-2.247l-0.13-0.028c-1.656,0.205-2.908,0.205-3.571,0.017l1.195-0.706
	C1.459,155.74-1.78,149.005,13.38,145.579c2.001-2.103,4.794-2.261,9.833-1.327c-0.633-0.172-2.981-0.947-4.347-0.775
	c1.987-0.604,4.333-1.54,6.578-2.447c6.967-11.531,5.672-10.381,11.244-15.794C-27.893,80.579,17.167,4.391,18.894,47.019
	c-0.013-0.129-0.056-0.258-0.129-0.431c0.014,0.158,0.073,0.331,0.129,0.49l0.03,0.576c0-0.232,0-0.389-0.013-0.533
	C21.528,53.944,56.611,80.563,71.052,91.259L71.052,91.259z M154.524,99.034c-1.166,0.345-2.563,0.631-4.29,0.906
	C151.429,99.854,153.099,99.595,154.524,99.034L154.524,99.034z M11.68,148.111c-0.776,1.021-1.281,2.289-1.498,3.858
	C10.672,150.458,11.162,149.175,11.68,148.111L11.68,148.111z M18.865,143.475c-0.231,0.031-0.432,0.073-0.59,0.159L18.865,143.475
	L18.865,143.475z M18.892,47.017v0.057l0.015,0.043L18.892,47.017L18.892,47.017z M69.021,95.477
	c-13.346-4.982-38.454-21.581-52.015-34.898c6.061,17.047,12.843,35.919,22.978,46.414c18.787,19.421,16.023,32.883,7.126,41.55
	l7.948,1.121l-0.375-0.285c13.663,2.186,25.741-6.841,37.171-8.035c10.466-14.714,34.826-44.686,48.878-58.521l-2.289,1.77
	c1.799-4.779,4.419-8.551,7.633-11.646h-0.03c-10.539,0.447-21.465,2.677-28.838,11.216c-2.159,4.649-4.247,5.83-10.738,7.629
	l3.094-0.819c-5.597,4.161-8.12,7.79-12.955,12.872c-2.893,7.442-11.272,11.129-18.717,8.22
	C71.152,109.442,67.497,102.33,69.021,95.477L69.021,95.477z M90.704,142.972l-0.563-0.028c-2.044,1.769-2.577,3.454-3.24,6.274
	C87.234,148.226,88.586,146.024,90.704,142.972L90.704,142.972z M172.231,69.593v0.057c1.137-0.949,2.13-2.044,2.895-3.081
	C174.076,67.793,173.123,68.785,172.231,69.593L172.231,69.593z M153.818,72.141l-0.504,0.043
	C153.442,72.211,153.617,72.198,153.818,72.141L153.818,72.141z M144.058,72.155c-1.209-0.649-2.433-1.598-3.787-2.88
	C141.625,70.7,142.502,71.564,144.058,72.155L144.058,72.155z M117.28,84.003l0.245-0.361l1.093-2.923
	C118.144,81.972,117.711,83.052,117.28,84.003z"/>
</svg>
