<?xml version="1.0" encoding="utf-8"?>
<!-- Generator: Adobe Illustrator 16.0.2, SVG Export Plug-In . SVG Version: 6.00 Build 0)  -->
<!DOCTYPE svg PUBLIC "-//W3C//DTD SVG 1.1//EN" "http://www.w3.org/Graphics/SVG/1.1/DTD/svg11.dtd">
<svg version="1.1" id="Layer_1" xmlns="http://www.w3.org/2000/svg" xmlns:xlink="http://www.w3.org/1999/xlink" x="0px" y="0px"
	 width="164.648px" height="200px" viewBox="17.676 0 164.648 200" enable-background="new 17.676 0 164.648 200"
	 xml:space="preserve">
<path d="M136.82,11.723c-0.94,22.22-2.084,69.75-5.01,111.568c10.17-11.156,14.195-12.879,27.13-33.384
	c2.55-4.733,8.445-6.495,13.171-3.961c4.726,2.548,6.493,8.444,3.96,13.169c-2.176,2.98-27.14,38.004-42.002,41.564
	c-0.843,0.641-1.656,1.22-2.438,1.744c29.549,25.813,16.38,12.17,48.693,55.577l-34.307-28.517l-16.858-15.347
	c-1.605,14.971-3.569,27.661-6.003,35.98c-1.646-4.94-2.78-21.775-3.572-43.311c-6.894-0.582-7.095-9.219-0.436-13.139
	c-1.375-47.18-1.491-108.168-1.771-121.947c0-5.375,4.347-9.721,9.721-9.721C132.461,2.002,136.82,6.349,136.82,11.723
	L136.82,11.723z M23.699,76.863c-3.398,2.46-4.735,6.702-3.659,10.516c2.566,34.186-0.329,53.619,7.39,88.292
	c9.827-25.124,6.234-12.353,10.815-38.293l-0.03,1.616l0.765-3.535c0.388,0.534,0.793,1.097,1.229,1.667
	c6.293,8.183,13.062,8.154,19.054,3.438c21.387,5.129,59.294,24.173-24.505,46.211v0.012l-0.019-0.012l0.009,0.689l-0.079,0.067
	l0.079,0.06l-0.009,0.687l0.019-0.01v0.02c7.795,2.052,22.968,1.375,31.244-0.126c58.025-10.573,29.271-41.243,0.883-56.689
	c16.381-26.984,18.386-86.809-37.548-57.724c-1.984,0.541-3.786,1.559-5.258,2.903L23.699,76.863L23.699,76.863z M41.583,122.398
	c2.042-11.239,2.613-18.705,3.775-35.038c24.827-8.636,18.192,30.624,6.922,37.526C48.187,123.455,44.508,122.583,41.583,122.398
	L41.583,122.398z M133.525,125.603l0.292,0.058l-0.272-0.064L133.525,125.603z"/>
</svg>
